<?xml version="1.0" standalone="no"?>
<!DOCTYPE svg PUBLIC "-//W3C//DTD SVG 20010904//EN"
 "http://www.w3.org/TR/2001/REC-SVG-20010904/DTD/svg10.dtd">
<svg version="1.0" xmlns="http://www.w3.org/2000/svg"
 width="300.000000pt" height="300.000000pt" viewBox="0 0 300.000000 300.000000"
 preserveAspectRatio="xMidYMid meet">
<metadata>
Created by potrace 1.11, written by Peter Selinger 2001-2013
</metadata>
<g transform="translate(0.000000,300.000000) scale(0.100000,-0.100000)"
fill="#000000" stroke="none">
<path d="M12 2988 c-17 -17 -17 -2959 0 -2976 17 -17 2959 -17 2976 0 17 17
17 2959 0 2976 -17 17 -2959 17 -2976 0z m1267 -1500 c204 -505 371 -920 371
-923 0 -11 -109 -5 -116 7 -5 7 -60 141 -124 298 l-117 285 -398 0 -398 0
-116 -285 c-64 -157 -120 -291 -124 -297 -5 -8 -30 -13 -64 -13 -48 0 -54 2
-49 18 70 190 752 1848 757 1839 4 -6 174 -425 378 -929z m994 867 c87 -23
147 -57 205 -119 90 -95 129 -216 120 -374 -8 -132 -57 -230 -151 -299 l-49
-36 62 -23 c193 -70 302 -228 302 -439 0 -235 -141 -416 -377 -481 -48 -13
-123 -18 -367 -21 l-308 -5 0 906 0 906 253 0 c192 0 267 -4 310 -15z"/>
<path d="M725 1718 c-92 -227 -170 -421 -173 -430 -4 -17 17 -18 345 -18 l350
0 -171 425 c-95 233 -174 427 -178 430 -3 3 -81 -180 -173 -407z"/>
<path d="M1830 1905 l0 -355 143 0 c253 1 346 27 431 121 56 62 77 124 78 227
1 148 -48 247 -151 309 -74 44 -127 53 -326 53 l-175 0 0 -355z"/>
<path d="M1830 1062 l0 -392 198 0 c108 0 228 5 267 10 169 25 297 131 341
284 32 113 1 259 -72 344 -87 102 -190 130 -506 139 l-228 6 0 -391z"/>
</g>
</svg>
